<svg width="204" height="63" viewBox="0 0 204 63" fill="none" xmlns="http://www.w3.org/2000/svg">
<path d="M25.7188 28.7812H24V33.4062C24.4792 33.5104 25.0521 33.6562 25.7188 33.8438V28.7812ZM0.4375 23.1562C0.4375 22.0104 0.59375 21.0208 0.90625 20.1875C1.21875 19.3542 1.70833 18.4271 2.375 17.4062H42.1875C42.8958 18.5104 43.3854 19.4688 43.6562 20.2812C43.9479 21.0938 44.0938 22.0521 44.0938 23.1562C44.0938 25.1354 43.4583 27.0104 42.1875 28.7812H40.625V46.9688C40.625 48.3438 40.7604 49.4896 41.0312 50.4062C41.3021 51.3021 41.7604 52.1354 42.4062 52.9062C42.0104 54.9062 41.0625 56.4688 39.5625 57.5938C38.0625 58.6979 36.1875 59.25 33.9375 59.25C31.6875 59.25 29.8229 58.625 28.3438 57.375C26.5938 55.8958 25.7188 53.7292 25.7188 50.875V44.3438C25.4688 44.0521 25.2292 43.8646 25 43.7812C24.7917 43.6771 24.4583 43.625 24 43.625V46.1875C24 48.4375 23.2396 50.375 21.7188 52C20.2188 53.6042 18.0938 54.4062 15.3438 54.4062C13.7396 54.4062 12.1979 54.1146 10.7188 53.5312C9.23958 52.9271 7.92708 52.0833 6.78125 51C4.26042 48.6458 3 45.8333 3 42.5625C3 37.9583 5.13542 34.9896 9.40625 33.6562V28.7812H2.375C1.08333 26.9896 0.4375 25.1146 0.4375 23.1562ZM57.2188 46.9688C57.2188 48.3438 57.3542 49.4896 57.625 50.4062C57.8958 51.3021 58.3542 52.1354 59 52.9062C58.625 54.8854 57.6979 56.4375 56.2188 57.5625C54.7396 58.6875 52.9167 59.25 50.75 59.25C49.1667 59.25 47.6979 58.9479 46.3438 58.3438C44.9896 57.7188 43.9479 56.8125 43.2188 55.625C43.7188 54.625 44.0312 53.5 44.1562 52.25C43.5938 51.6875 43.1979 51.1562 42.9688 50.6562C42.5312 49.7188 42.3125 48.4583 42.3125 46.875V28.7812H40.7188C39.4479 27.0104 38.8125 25.1354 38.8125 23.1562C38.8125 22.0938 38.9688 21.1354 39.2812 20.2812C39.5729 19.4062 40.0521 18.4479 40.7188 17.4062H58.7812C59.4896 18.5104 59.9792 19.4688 60.25 20.2812C60.5417 21.0938 60.6875 22.0521 60.6875 23.1562C60.6875 25.1354 60.0521 27.0104 58.7812 28.7812H57.2188V46.9688ZM55.8438 23.1562C55.8438 22.0938 56 21.1354 56.3125 20.2812C56.6042 19.4062 57.0833 18.4479 57.75 17.4062H95.9062C96.6146 18.5104 97.1042 19.4688 97.375 20.2812C97.6667 21.0938 97.8125 22.0521 97.8125 23.1562C97.8125 25.1354 97.1771 27.0104 95.9062 28.7812H94.3438V46.9688C94.3438 48.3438 94.4792 49.4896 94.75 50.4062C95.0208 51.3021 95.4792 52.1354 96.125 52.9062C95.7292 54.9062 94.7812 56.4688 93.2812 57.5938C91.7812 58.6979 89.9062 59.25 87.6562 59.25C85.4062 59.25 83.5417 58.625 82.0625 57.375C80.3125 55.8958 79.4375 53.7292 79.4375 50.875V42.0312C79.0417 41.5729 78.3542 41.3438 77.375 41.3438C77.0625 41.3438 76.8125 41.3854 76.625 41.4688C76.8542 41.8021 77.0729 42.3333 77.2812 43.0625C77.4896 43.7708 77.5938 44.5417 77.5938 45.375C77.5938 47.7083 76.9271 49.5417 75.5938 50.875C74.1771 52.3333 72.1979 53.0625 69.6562 53.0625C66.6146 53.0625 64.0312 51.9167 61.9062 49.625C59.7604 47.375 58.6875 44.6354 58.6875 41.4062C58.6875 37.7188 59.9583 34.8854 62.5 32.9062C64.8333 31.0938 68.0312 30.1875 72.0938 30.1875C73.6771 30.1875 75.125 30.3125 76.4375 30.5625C77.3542 30.7708 78.3542 31.0938 79.4375 31.5312V28.7812H57.75C56.4792 27.0104 55.8438 25.1354 55.8438 23.1562ZM110.969 46.9688C110.969 48.3438 111.104 49.4896 111.375 50.4062C111.646 51.3021 112.104 52.1354 112.75 52.9062C112.375 54.8854 111.448 56.4375 109.969 57.5625C108.49 58.6875 106.667 59.25 104.5 59.25C102.917 59.25 101.448 58.9479 100.094 58.3438C98.7396 57.7188 97.6979 56.8125 96.9688 55.625C97.4688 54.625 97.7812 53.5 97.9062 52.25C97.3438 51.6875 96.9479 51.1562 96.7188 50.6562C96.2812 49.7188 96.0625 48.4583 96.0625 46.875V28.7812H94.4688C93.1979 27.0104 92.5625 25.1354 92.5625 23.1562C92.5625 22.0938 92.7188 21.1354 93.0312 20.2812C93.3229 19.4062 93.8021 18.4479 94.4688 17.4062H112.531C113.24 18.5104 113.729 19.4688 114 20.2812C114.292 21.0938 114.438 22.0521 114.438 23.1562C114.438 25.1354 113.802 27.0104 112.531 28.7812H110.969V46.9688ZM155.906 23.1562C155.906 25.1354 155.271 27.0104 154 28.7812H152.438V46.9688C152.438 48.3854 152.583 49.5521 152.875 50.4688C153.188 51.3646 153.646 52.1771 154.25 52.9062C153.854 54.9062 152.906 56.4688 151.406 57.5938C149.906 58.6979 148.177 59.25 146.219 59.25C144.26 59.25 142.552 58.9167 141.094 58.25C139.656 57.5833 138.531 56.6562 137.719 55.4688C139.156 54.8438 140.5 54.0104 141.75 52.9688C143 51.9271 143.625 51.0312 143.625 50.2812C143.625 49.8438 143.406 49.5104 142.969 49.2812C141.844 51.0104 140.198 52.4583 138.031 53.625C135.531 55 132.719 55.6875 129.594 55.6875C125.427 55.6875 122.115 54.7188 119.656 52.7812C117.198 50.8229 115.969 48.1979 115.969 44.9062C115.969 43.2188 116.333 41.7708 117.062 40.5625C115.792 40.4375 114.698 39.7917 113.781 38.625C112.885 37.4375 112.438 35.9792 112.438 34.25C112.438 32.5208 112.823 31.1667 113.594 30.1875H136.188C137.083 31.5417 137.531 33.1042 137.531 34.875C137.531 36.625 137.094 38.0208 136.219 39.0625C135.302 40.1042 134.125 40.625 132.688 40.625H130.188C129.833 40.9375 129.656 41.3125 129.656 41.75C129.656 42.1875 129.844 42.5521 130.219 42.8438C130.594 43.1146 131.052 43.25 131.594 43.25C132.156 43.25 132.698 43.1458 133.219 42.9375C133.76 42.7292 134.156 42.3854 134.406 41.9062C137.594 41.0521 139.188 38.7604 139.188 35.0312C139.188 33.8438 138.99 32.6771 138.594 31.5312C138.198 30.3854 137.729 29.4688 137.188 28.7812H111.031C109.76 27.0104 109.125 25.1354 109.125 23.1562C109.125 22.0938 109.281 21.1354 109.594 20.2812C109.885 19.4062 110.365 18.4479 111.031 17.4062H154C154.708 18.5104 155.198 19.4688 155.469 20.2812C155.76 21.0938 155.906 22.0521 155.906 23.1562ZM142.719 16.5625C142.719 16.375 142.656 16.1875 142.531 16C139.323 16 136.552 15.625 134.219 14.875C131.26 13.9375 129.125 12.5208 127.812 10.625C127.812 7.54167 128.854 5.0625 130.938 3.1875C132.812 1.5 135.083 0.65625 137.75 0.65625C141.833 0.65625 145.135 2.36458 147.656 5.78125C150.01 8.96875 151.188 12.9583 151.188 17.75V18.625C151.188 20.0625 150.75 21.2083 149.875 22.0625C149 22.8958 147.833 23.3125 146.375 23.3125C144.896 23.3125 143.729 22.8854 142.875 22.0312C142.021 21.1771 141.594 20.125 141.594 18.875V17.4062C142.344 17.4062 142.719 17.125 142.719 16.5625ZM185.406 39.8125C185.677 39.8125 185.917 39.7083 186.125 39.5C185.271 38.125 184.844 36.4271 184.844 34.4062C184.844 32.3646 185.615 30.5417 187.156 28.9375C188.698 27.3333 190.719 26.5312 193.219 26.5312C196.135 26.5312 198.542 27.4271 200.438 29.2188C202.333 31.0104 203.281 33.5 203.281 36.6875C203.281 39.0417 202.667 41.1875 201.438 43.125C200.229 45.0417 198.51 46.5938 196.281 47.7812C197.719 49.8229 198.438 51.9583 198.438 54.1875C198.438 56.8958 197.521 58.9792 195.688 60.4375C194.042 61.7708 191.948 62.4375 189.406 62.4375C186.885 62.4375 184.74 61.7396 182.969 60.3438C181.031 58.8646 179.948 56.8958 179.719 54.4375C180.948 53.5208 181.979 52.4167 182.812 51.125C183.083 51.2083 183.635 51.2917 184.469 51.375C185.323 51.4583 186.156 51.5 186.969 51.5C187.781 51.5 188.365 51.4167 188.719 51.25C189.094 51.0625 189.281 50.7812 189.281 50.4062C189.281 50.3854 189.26 50.2292 189.219 49.9375C188.135 50.0417 187.156 50.0938 186.281 50.0938C183.24 50.0938 180.365 49.4688 177.656 48.2188C174.969 46.9688 172.781 45.1042 171.094 42.625C169.406 40.125 168.562 37.125 168.562 33.625C168.562 29.6875 169.76 26.0625 172.156 22.75C174.281 19.8125 176.823 17.7812 179.781 16.6562C179.885 16.6354 180.062 16.625 180.312 16.625H180.812C183.104 16.625 185.365 17.125 187.594 18.125C189.823 19.1042 191.448 20.375 192.469 21.9375L191.156 24.9688C188.656 25.5521 186.708 26.75 185.312 28.5625C183.958 30.375 183.281 32.3854 183.281 34.5938C183.281 35.8854 183.51 37.0729 183.969 38.1562C184.385 39.2604 184.865 39.8125 185.406 39.8125Z" fill="#D9D9D9"/>
</svg>
